<?xml version="1.0" encoding="UTF-8"?>
<svg width="158px" height="34px" viewBox="0 0 158 34" version="1.1" xmlns="http://www.w3.org/2000/svg" xmlns:xlink="http://www.w3.org/1999/xlink">
    <!-- Generator: Sketch 53.2 (72643) - https://sketchapp.com -->
    <title>Group</title>
    <desc>Created with Sketch.</desc>
    <defs>
        <polygon id="path-1" points="9.92165293e-05 0.4355 33.5635 0.4355 33.5635 33.99985 9.92165293e-05 33.99985"></polygon>
        <polygon id="path-3" points="0.11 0.0577777778 3.995 0.0577777778 3.995 12.2630444 0.11 12.2630444"></polygon>
        <polygon id="path-5" points="0.439733333 0.0577777778 3.89306667 0.0577777778 3.89306667 12.2630444 0.439733333 12.2630444"></polygon>
        <polygon id="path-7" points="0.4668 0.933535038 7.61866667 0.933535038 7.61866667 12.8843 0.4668 12.8843"></polygon>
    </defs>
    <g id="Page-1" stroke="none" stroke-width="1" fill="none" fill-rule="evenodd">
        <g id="Desktop-Copy-4" transform="translate(-16.000000, -18.000000)">
            <g id="Group" transform="translate(16.000000, 18.000000)">
                <g id="Group-8">
                    <g id="Group-3">
                        <mask id="mask-2" fill="white">
                            <use xlink:href="#path-1"></use>
                        </mask>
                        <g id="Clip-2"></g>
                        <path d="M33.5002,19.14785 C33.3987,20.26935 33.1847,21.38785 32.8397,22.47235 C32.5002,23.55785 32.0342,24.60685 31.4717,25.60485 C31.3302,25.85385 31.1927,26.10635 31.0287,26.34235 L30.7927,26.70235 C30.7137,26.82285 30.6352,26.94335 30.5467,27.05635 L30.0272,27.74585 C29.9437,27.86385 29.8447,27.96885 29.7522,28.07885 L29.4687,28.40585 C28.7017,29.26685 27.8512,30.06485 26.9092,30.74585 C26.7927,30.83235 26.6792,30.92385 26.5592,31.00535 L26.1937,31.24385 L25.8277,31.48085 C25.7662,31.52035 25.7062,31.56185 25.6437,31.59885 L25.4532,31.70585 L24.6897,32.13135 L23.8997,32.50735 C23.1897,32.82535 22.0815333,33.1926833 20.5752,33.60935 C19.0305333,33.8606833 17.8663667,33.99085 17.0827,33.99985 L16.2007,33.98035 C16.0532,33.98085 15.9067,33.96635 15.7602,33.95335 L15.3207,33.91535 C15.1737,33.90135 15.0267,33.89035 14.8807,33.87435 L14.4427,33.81485 C14.1522,33.76935 13.8607,33.72285 13.5727,33.65985 C12.4177,33.42435 11.2882,33.06035 10.2032,32.59385 C9.1197,32.12235 8.0882,31.53285 7.1282,30.84635 C6.1717,30.15585 5.2722,29.37935 4.4727,28.50685 C3.6712,27.63735 2.9632,26.68135 2.3622,25.66335 C1.7577,24.64635 1.2697,23.56385 0.8922,22.44635 C0.8407,22.30785 0.7992,22.16635 0.7567,22.02485 L0.6302,21.60135 C0.5527,21.31685 0.4827,21.03035 0.4132,20.74435 C0.3567,20.45635 0.2897,20.17285 0.2432,19.87985 L0.1112,18.99985 L0.1007,18.92935 L0.1017,18.84935 L0.1017,18.83835 L0.1117,18.99285 C0.0432,18.29135 -0.0128,17.58685 0.0027,16.88185 C-0.0038,16.52985 0.0247,16.17835 0.0402,15.82685 C0.0492,15.65085 0.0717,15.47635 0.0872,15.30085 C0.1057,15.12585 0.1182,14.95035 0.1482,14.77685 C0.3452,13.38485 0.6912,12.01235 1.2257,10.71585 C2.2822,8.11835 3.9877,5.81535 6.1332,4.06985 C7.2012,3.19185 8.3852,2.46685 9.6287,1.89335 C10.2522,1.60885 10.8912,1.36435 11.5422,1.16285 C12.1922,0.95835 12.8532,0.79585 13.5212,0.68085 C16.1882,0.19835 18.9472,0.43535 21.4277,1.31785 C20.1322,1.08185 18.8257,0.97735 17.5337,1.04035 C16.8882,1.06935 16.2467,1.13185 15.6132,1.23385 C14.9802,1.33785 14.3552,1.47635 13.7427,1.65135 C12.5147,1.99235 11.3447,2.49885 10.2457,3.10785 C9.6982,3.41785 9.1737,3.76385 8.6697,4.13285 C8.1632,4.49985 7.6832,4.90085 7.2322,5.32985 C6.3272,6.18385 5.5232,7.13785 4.8522,8.17685 C4.1692,9.20685 3.6277,10.32085 3.2202,11.47585 C2.3967,13.78385 2.1677,16.27935 2.5047,18.68435 L2.5132,18.74585 L2.5147,18.83835 L2.5147,18.84935 L2.5052,18.69835 L2.6392,19.43985 C2.6817,19.68735 2.7467,19.93685 2.7987,20.18535 C2.8637,20.43035 2.9277,20.67485 2.9982,20.91735 L3.1132,21.27885 C3.1512,21.39935 3.1892,21.52035 3.2352,21.63785 C3.5747,22.59035 4.0132,23.50435 4.5287,24.37085 C5.0467,25.23685 5.6537,26.04785 6.3417,26.78485 C7.0267,27.52385 7.7847,28.19635 8.6017,28.79135 C9.4197,29.38585 10.3007,29.88635 11.2167,30.31085 C12.1372,30.72485 13.0982,31.05385 14.0867,31.27235 C14.5807,31.37885 15.0777,31.48385 15.5827,31.53035 L15.9602,31.57485 C16.0862,31.58985 16.2122,31.60685 16.3387,31.60935 L17.0992,31.64785 C18.1142,31.66035 19.1317,31.58435 20.1377,31.41585 C21.1432,31.23835 22.1247,30.94285 23.0812,30.57885 L23.7917,30.28485 L24.4817,29.94435 L24.6542,29.85935 C24.7112,29.82985 24.7657,29.79585 24.8212,29.76435 L25.1547,29.57085 L25.4892,29.37835 C25.6007,29.31335 25.7047,29.23785 25.8127,29.16785 L26.1347,28.95485 C26.2402,28.88135 26.3537,28.81735 26.4532,28.73535 L27.0677,28.26485 C27.1732,28.18885 27.2677,28.10135 27.3652,28.01585 L27.6562,27.75985 L27.9487,27.50335 L28.2237,27.22835 C28.9737,26.51035 29.6332,25.69535 30.2232,24.83235 C30.8142,23.96835 31.3142,23.03985 31.7287,22.06785 L32.0177,21.32985 L32.2662,20.57435 C32.4172,20.06585 32.5557,19.55085 32.6557,19.02635 C33.0742,16.93285 33.0862,14.73285 32.6822,12.57235 C33.4177,14.64385 33.7027,16.90485 33.5002,19.14785 Z" id="Fill-1" fill="#FFDE49" mask="url(#mask-2)"></path>
                    </g>
                    <path d="M15.9764821,18.0148046 C15.6678099,17.7054758 15.3836355,17.3824207 15.1239588,17.0436786 C14.8637923,16.7108192 14.6242038,16.3573705 14.4130328,16 L14.4037237,16 L10.7878491,17.853032 L12.0323371,17.9951958 L10.8760412,18.9653414 L8.61244488,20.8722977 L11.11073,20.1173587 L8.60264576,23.2596696 L10.4840764,22.1228492 L8.78343949,24.7744497 L8,26 L9.22488976,25.2156478 L11.8755512,23.5150743 L10.7383635,25.3975195 L13.8794708,22.8871023 L13.88927,22.8527869 C13.8990691,22.8527869 13.9034787,22.8581793 13.9083782,22.8630815 L13.8794708,22.8871023 L13.1249388,25.3872249 L15.0303773,23.1228982 L16.0009799,21.9610765 L16.1430671,23.2111378 L17.9897109,19.5933134 L17.9951004,19.5933134 L18,19.5830188 C17.6374326,19.3678121 17.2846644,19.1320163 16.9514944,18.8726898 C16.6134248,18.6128732 16.2900539,18.3285455 15.9764821,18.0148046 Z" id="Fill-4" fill="#FFBB2E"></path>
                    <path d="M28.0248566,8.83252788 C27.2368547,9.6204461 25.956979,9.6204461 25.1689771,8.83252788 C24.3809751,8.04460967 24.3809751,6.76486989 25.1689771,5.97193309 C25.956979,5.18401487 27.2368547,5.18401487 28.0248566,5.97193309 C28.8178776,6.76486989 28.8178776,8.04460967 28.0248566,8.83252788 M31.5081262,2.01226766 L31.4328394,2.01226766 C31.3876673,2.01728625 31.3475143,2.01728625 31.3073614,2.01728625 L31.297825,2.01728625 C31.1517686,2.02732342 31.0062141,2.03234201 30.8606597,2.04237918 C30.5695507,2.06797398 30.2884799,2.09256506 30.0023901,2.13271375 C29.8668738,2.14776952 29.7313576,2.16784387 29.6008604,2.18289963 C29.4854207,2.20297398 29.3699809,2.22304833 29.2595602,2.24312268 C29.2194073,2.24814126 29.1792543,2.25315985 29.1391013,2.26319703 C29.0286807,2.28327138 28.91826,2.30334572 28.8078394,2.32342007 C28.7024379,2.34349442 28.5970363,2.36858736 28.4866157,2.3936803 C28.4364245,2.40371747 28.3912524,2.41375465 28.3410612,2.42379182 C28.2306405,2.44888476 28.125239,2.4739777 28.0198375,2.49907063 C27.9194551,2.52416357 27.8190727,2.55427509 27.7186902,2.57936803 C27.6589627,2.59442379 27.5932122,2.61449814 27.5334847,2.6295539 C27.4376195,2.65966543 27.3372371,2.68475836 27.2418738,2.71486989 C27.1314532,2.74498141 27.0260516,2.78011152 26.9206501,2.81524164 C26.8905354,2.82527881 26.8604207,2.83531599 26.8303059,2.84033457 C26.709847,2.88048327 26.5893881,2.92063197 26.4739484,2.96579926 C26.3635277,3.00594796 26.2581262,3.04609665 26.1532266,3.08122677 C26.0924952,3.1063197 26.0322658,3.13141264 25.9720363,3.15148699 C25.7767925,3.23178439 25.5805449,3.3070632 25.3847992,3.39237918 C25.3195507,3.42249071 25.249283,3.45762082 25.1790153,3.48773234 C25.0736138,3.53791822 24.9631931,3.5830855 24.8527725,3.63327138 C24.7674474,3.67843866 24.6821224,3.71858736 24.5917782,3.76375465 C24.3608987,3.87918216 24.1300191,3.99962825 23.8991396,4.13011152 C23.8891013,4.13513011 23.8790631,4.1401487 23.8690249,4.14516729 C23.8690249,4.14516729 23.8640057,4.14516729 23.8640057,4.15018587 C23.7234704,4.22546468 23.582935,4.31078067 23.4373805,4.39107807 C23.4373805,4.39609665 23.4323614,4.39609665 23.4323614,4.40111524 C23.417304,4.40613383 23.4072658,4.416171 23.3972275,4.42118959 C23.2968451,4.48141264 23.1914436,4.54163569 23.0910612,4.60687732 C23.0709847,4.62193309 23.0509082,4.63698885 23.0258126,4.65204461 C23.0057361,4.66208178 22.9856597,4.67713755 22.9655832,4.69219331 C22.9354685,4.71226766 22.9053537,4.72732342 22.875239,4.75241636 C22.835086,4.77249071 22.7999522,4.79758364 22.7597992,4.82819703 C22.7296845,4.84776952 22.6945507,4.86784387 22.6644359,4.88791822 C22.6398423,4.90799257 22.6142447,4.92304833 22.58413,4.94312268 C22.5690727,4.95366171 22.5540153,4.96319703 22.5389579,4.9732342 C22.4285373,5.0535316 22.3130975,5.133829 22.1976577,5.21412639 C22.1926386,5.21914498 22.1826004,5.22416357 22.1775813,5.22918216 C22.1223709,5.26933086 22.0671606,5.30947955 22.0169694,5.34962825 C21.9517208,5.39981413 21.8869742,5.45 21.8212237,5.50018587 C21.7810707,5.5302974 21.7459369,5.56040892 21.7057839,5.59052045 C21.665631,5.62063197 21.6204589,5.65576208 21.5803059,5.69089219 C21.5752868,5.69089219 21.5752868,5.69089219 21.5702677,5.69591078 C21.5250956,5.73104089 21.4799235,5.766171 21.4397706,5.8063197 C21.1536807,6.03717472 20.8776291,6.27806691 20.6116157,6.52899628 C20.5212715,6.60929368 20.4359465,6.69460967 20.3456023,6.77992565 C20.290392,6.83011152 20.2351816,6.88531599 20.1849904,6.94052045 C20.0494742,7.0760223 19.9139579,7.21202602 19.7884799,7.35204461 C19.748327,7.39219331 19.708174,7.43234201 19.6730402,7.47249071 C19.5224665,7.63810409 19.3718929,7.80371747 19.2313576,7.97434944 C19.206262,7.99944238 19.1861855,8.02453532 19.1610899,8.05464684 C19.1058795,8.12490706 19.0456501,8.19516729 18.9904398,8.26542751 C18.9352294,8.25539033 18.8800191,8.25037175 18.8248088,8.24033457 C17.7055449,8.07973978 16.1044455,8.09479554 15.4619981,8.37583643 C15.1156788,8.52639405 14.5485182,8.96301115 14.1369503,9.35446097 C14.0666826,9.42472119 13.9913958,9.48996283 13.9261472,9.56022305 C13.7354207,9.75092937 13.5497132,9.94665428 13.3790631,10.1473978 C13.3238528,10.2126394 13.2736616,10.2728625 13.2234704,10.3330855 C13.2134321,10.3486431 13.2033939,10.3581784 13.1983748,10.3682156 C13.1381453,10.4384758 13.0779159,10.5137546 13.0227055,10.5890335 C12.9875717,10.6342007 12.957457,10.6743494 12.9223231,10.7250372 C12.8671128,10.7947955 12.8119025,10.8700743 12.7617113,10.9453532 C12.706501,11.020632 12.6563098,11.0959108 12.6061185,11.1711896 C12.5810229,11.2063197 12.5609465,11.2414498 12.54087,11.2715613 C12.4956979,11.3418216 12.4505258,11.4070632 12.4103728,11.4778253 C12.3953155,11.5024164 12.375239,11.5325279 12.3601816,11.5576208 C12.3250478,11.6178439 12.2848948,11.6830855 12.2547801,11.7433086 C12.1845124,11.8542193 12.124283,11.969145 12.0640535,12.0845725 C12.0289197,12.1548327 11.9937859,12.2200743 11.958652,12.2903346 C11.9536329,12.3003717 11.9486138,12.3104089 11.9435946,12.3254647 C11.918499,12.3756506 11.8934034,12.430855 11.8632887,12.4815428 C11.8281549,12.5613383 11.793021,12.6416357 11.7578872,12.7219331 C11.667543,12.9276952 11.582218,13.1384758 11.501912,13.3492565 C11.4617591,13.4546468 11.4266252,13.5650558 11.3914914,13.6704461 C11.3613767,13.7657993 11.331262,13.866171 11.3011472,13.9615242 C11.291109,13.987119 11.2860899,14.0066914 11.2810707,14.0317844 C11.2559751,14.122119 11.2308795,14.2074349 11.2057839,14.2927509 C11.2057839,14.3128253 11.2007648,14.327881 11.1957457,14.3429368 C11.1756692,14.413197 11.1606119,14.4784387 11.1455545,14.5486989 C11.1355163,14.5938662 11.1204589,14.644052 11.1104207,14.6942379 C11.0958652,14.7795539 11.0752868,14.8598513 11.0602294,14.9401487 C11.0552103,14.985316 11.0451721,15.0254647 11.040153,15.070632 C11.0250956,15.1408922 11.0150574,15.2111524 11,15.2864312 L11,15.301487 L14.1570268,14.754461 L15.3716539,14.5436803 L15.456979,14.5286245 C15.4720363,14.5537175 15.4875956,14.5788104 15.5021511,14.6039033 C15.5473231,14.6842007 15.5924952,14.7594796 15.6426864,14.839777 C15.6627629,14.8749071 15.6828394,14.9100372 15.7029159,14.9401487 C15.7330306,14.9908364 15.7681644,15.0405204 15.7982792,15.0907063 C16.1897706,15.6979554 16.6565488,16.2750929 17.1885755,16.8070632 C17.7256214,17.344052 18.3028203,17.8107807 18.9101338,18.2022305 C18.9352294,18.2172862 18.960325,18.232342 18.9854207,18.2473978 C19.0054971,18.2674721 19.0305927,18.2825279 19.0556883,18.2975836 C19.0908222,18.317658 19.1264579,18.3377323 19.1610899,18.3578067 C19.2413958,18.4079926 19.3166826,18.4531599 19.3969885,18.4983271 C19.4220841,18.5133829 19.4471797,18.5284387 19.4722753,18.5384758 L19.457218,18.6293123 L19.2464149,19.8433086 L18.6993308,23 L18.7143881,23 C18.789675,22.9849442 18.8599426,22.9749071 18.9302103,22.9598513 C18.9753824,22.9548327 19.0155354,22.9447955 19.0607075,22.9347584 C19.1410134,22.9197026 19.2213193,22.9046468 19.3016252,22.8845725 C19.3518164,22.8745353 19.4020076,22.8644981 19.4521989,22.854461 C19.5224665,22.8394052 19.5877151,22.8193309 19.6529637,22.8042751 C19.6730402,22.7992565 19.6880975,22.7942379 19.7031549,22.7892193 C19.793499,22.7696468 19.879326,22.744052 19.9691683,22.7189591 C19.9892447,22.7139405 20.0143403,22.7039033 20.0344168,22.6988848 C20.1347992,22.6687732 20.2351816,22.6386617 20.3305449,22.6035316 C20.4359465,22.5734201 20.5463671,22.5332714 20.6467495,22.4981413 C20.8625717,22.4178439 21.0733748,22.3325279 21.2791587,22.2421933 C21.3594646,22.2070632 21.4397706,22.1719331 21.5200765,22.1317844 C21.5702677,22.1066914 21.625478,22.0815985 21.6756692,22.0565056 C21.6857075,22.051487 21.7007648,22.0464684 21.7108031,22.0414498 C21.7760516,22.0063197 21.8463193,21.9711896 21.916587,21.9360595 C22.0320268,21.8758364 22.1474665,21.8105948 22.2578872,21.7453532 C22.3181166,21.710223 22.3833652,21.6750929 22.4435946,21.6404647 C22.4686902,21.6198885 22.498805,21.6048327 22.5239006,21.589777 C22.5941683,21.5446097 22.6594168,21.504461 22.7296845,21.4592937 C22.7597992,21.4392193 22.7949331,21.419145 22.8300669,21.394052 C22.9053537,21.3438662 22.9806405,21.2936803 23.0559273,21.2384758 C23.1312141,21.18829 23.206501,21.1330855 23.2767686,21.077881 C23.3219407,21.0427509 23.3671128,21.0131413 23.4122849,20.9775093 C23.4875717,20.9172862 23.5578394,20.8620818 23.6331262,20.8018587 C23.6436663,20.7968401 23.6532027,20.7817844 23.6632409,20.7767658 C23.7284895,20.7265799 23.7887189,20.6763941 23.8489484,20.6211896 C24.0547323,20.445539 24.250478,20.2648699 24.4412046,20.0741636 C24.5064532,20.0039033 24.5767208,19.9336431 24.6419694,19.8633829 C25.0384799,19.4518587 25.4701243,18.8847584 25.625717,18.5384758 C25.9022706,17.8960967 25.9218451,16.2951673 25.7612333,15.1710037 C25.751195,15.1208178 25.7461759,15.0656134 25.7361377,15.0104089 C25.8064054,14.9552045 25.876673,14.8949814 25.9469407,14.8347584 C25.9720363,14.814684 26.0021511,14.7895911 26.0277486,14.7695167 C26.1978967,14.6289963 26.3635277,14.4784387 26.5296606,14.327881 C26.5693117,14.2877323 26.6094646,14.2526022 26.6496176,14.2124535 C26.790153,14.0819703 26.9256692,13.951487 27.0611855,13.8159851 L27.1414914,13.7361896 C27.166587,13.7055762 27.1967017,13.6804833 27.2217973,13.6503717 C27.3071224,13.5650558 27.3924474,13.4797398 27.4727533,13.3894052 C27.7237094,13.1184015 27.9646272,12.8423792 28.1955067,12.5613383 C28.2356597,12.5211896 28.2707935,12.4760223 28.3059273,12.430855 C28.3109465,12.4258364 28.3109465,12.4258364 28.3109465,12.4208178 C28.3460803,12.3806691 28.3812141,12.3355019 28.4118308,12.2953532 C28.4414436,12.2552045 28.4715583,12.2150558 28.501673,12.1799257 C28.5518642,12.114684 28.6020554,12.0494424 28.6522467,11.9842007 C28.6923996,11.9289963 28.7325526,11.8788104 28.7676864,11.8236059 L28.7882648,11.8035316 C28.8680688,11.6881041 28.9483748,11.5726766 29.0286807,11.4622677 C29.0392208,11.4472119 29.0487572,11.4271375 29.0587954,11.4120818 C29.0788719,11.3869888 29.0939293,11.3568773 29.1140057,11.3317844 C29.1340822,11.3016729 29.1541587,11.2715613 29.1742352,11.2414498 C29.2043499,11.2013011 29.2244264,11.166171 29.249522,11.1260223 C29.2695985,11.0959108 29.2901769,11.0657993 29.3097514,11.0356877 C29.3248088,11.0156134 29.3398662,10.995539 29.3499044,10.9759665 C29.3649618,10.9503717 29.3800191,10.9302974 29.3950765,10.910223 C29.460325,10.8048327 29.5205545,10.704461 29.5807839,10.5995725 C29.5858031,10.5890335 29.5958413,10.5789963 29.6008604,10.5689591 C29.6058795,10.5689591 29.6058795,10.5639405 29.6058795,10.5589219 C29.6912046,10.4184015 29.7715105,10.277881 29.8518164,10.1373606 C29.8518164,10.1373606 29.8518164,10.132342 29.8568356,10.132342 C29.8618547,10.1223048 29.8668738,10.1122677 29.8718929,10.1022305 C30.0023901,9.87137546 30.1228489,9.64052045 30.2382887,9.40464684 C30.2834608,9.31933086 30.3236138,9.23401487 30.3637667,9.14869888 C30.419479,9.03828996 30.4641491,8.92788104 30.5143403,8.82249071 C30.544957,8.75223048 30.5795889,8.68197026 30.6097036,8.61171004 C30.6900096,8.42100372 30.7703155,8.22527881 30.8456023,8.0295539 C30.8706979,7.96933086 30.8957935,7.90910781 30.91587,7.84888476 C30.9560229,7.74349442 30.9961759,7.63810409 31.0363289,7.52769517 C31.0764818,7.41226766 31.1166348,7.29182156 31.1567878,7.17137546 C31.166826,7.14126394 31.1768642,7.11115242 31.1869025,7.0760223 C31.2220363,6.97063197 31.2571702,6.86524164 31.2872849,6.7598513 C31.3173996,6.66449814 31.3424952,6.56412639 31.3726099,6.46877323 C31.3876673,6.4035316 31.4077438,6.34330855 31.4233031,6.2830855 C31.4478967,6.18271375 31.4780115,6.08284387 31.5031071,5.98197026 C31.5282027,5.87156134 31.5532983,5.766171 31.5783939,5.66078067 C31.5884321,5.6105948 31.5984704,5.56040892 31.6085086,5.51022305 C31.6336042,5.40483271 31.6536807,5.29944238 31.6787763,5.19405204 C31.6988528,5.08364312 31.7189293,4.9732342 31.7390057,4.86282528 C31.7440249,4.82267658 31.7540631,4.78252788 31.7590822,4.74237918 C31.7791587,4.62695167 31.7997371,4.51152416 31.8142925,4.40111524 C31.834369,4.26561338 31.8544455,4.13513011 31.8695029,3.99962825 L31.8695029,3.99460967 C31.9096558,3.71356877 31.9347514,3.43252788 31.9548279,3.1464684 L31.9548279,3.14144981 C31.9698853,2.99591078 31.9749044,2.85037175 31.9849426,2.69981413 C31.9849426,2.65464684 31.9849426,2.60947955 31.9899618,2.56983271 L31.9899618,2.49405204 C31.9949809,2.37862454 32,2.25817844 32,2.13773234 L32,2.00223048 C31.9548279,2.00223048 31.9046367,1.9972119 31.8644837,2.00223048 C31.7440249,2.00223048 31.623566,2.00724907 31.5081262,2.01226766 Z" id="Fill-6" fill="#9664E2"></path>
                </g>
                <g id="Group-36" transform="translate(42.000000, 9.000000)">
                    <path d="M1.00067613,1 C0.363759297,1 0,1.33908755 0,1.97657213 L0,11.0247842 C0,11.6609125 0.351588911,12 1.00067613,12 C1.6362407,12 2,11.6609125 2,11.0247842 L2,1.97657213 C2,1.33908755 1.6362407,1 1.00067613,1" id="Fill-1" fill="#231916"></path>
                    <path d="M9.28992339,4 C8.2311923,4 7.36633274,4.45128205 6.85621685,5.35247863 L6.85621685,4.90119658 C6.85621685,4.31316239 6.52622275,4 5.93635828,4.01367521 C5.34374386,4.01367521 5,4.34188034 5,4.91623932 L5,11.0153846 C5,11.6444444 5.37124337,12 6.00373208,12 C6.66372029,12 7.00746415,11.6444444 7.00746415,11.0153846 L7.00746415,6.91282051 C7.22746022,6.05128205 7.87507366,5.35247863 8.72618346,5.35247863 C9.53879395,5.35247863 10.0186604,5.96786325 10.0186604,7.03589744 L10.0186604,11.0153846 C10.0186604,11.6444444 10.3624042,12 11.0086427,12 C11.6562561,12 12,11.6444444 12,11.0153846 L12,6.88410256 C12,5.05299145 10.8436456,4 9.28992339,4" id="Fill-3" fill="#231916"></path>
                    <path d="M18.3333333,10.3776224 C18,10.3776224 17.7727273,10.5454545 17.4242424,10.5454545 C17.0454545,10.5454545 16.8636364,10.2937063 16.8636364,9.60839161 L16.8636364,5.56643357 L18.2424242,5.56643357 C18.6818182,5.56643357 18.9242424,5.31468531 18.9242424,4.86713287 C18.9242424,4.41958042 18.6818182,4.16783217 18.2424242,4.16783217 L16.8636364,4.16783217 L16.8636364,2.99300699 C16.8636364,2.36503497 16.4712121,2 15.7575758,2 C15.0606061,2 14.6666667,2.36503497 14.6666667,2.99300699 L14.6666667,4.16783217 L13.6818182,4.16783217 C13.2575758,4.16783217 13,4.41958042 13,4.86713287 C13,5.31468531 13.2575758,5.56643357 13.6818182,5.56643357 L14.6666667,5.56643357 L14.6666667,9.65034965 C14.6666667,11.2727273 15.4090909,12 17.0151515,12 C17.8636364,12 19,11.8181818 19,11.1188811 C19,10.7972028 18.7439394,10.3776224 18.3333333,10.3776224" id="Fill-5" fill="#231916"></path>
                    <path d="M25.0824695,7.19535915 L21.9699494,7.19535915 C22.1275454,6.02149804 22.7040839,5.28442245 23.6772389,5.28442245 C24.6490806,5.28442245 25.2137994,6.00784849 25.2137994,7.04521413 C25.2137994,7.14076096 25.1730871,7.19535915 25.0824695,7.19535915 M26.9998869,7.39873742 C27.0130199,5.76079167 25.8822689,4 23.6772389,4 C21.3907843,4 20,5.5969971 20,8.19041119 C20,10.7701757 21.4840286,12 23.7415906,12 C25.0548902,12 26.0529979,11.5359154 26.4863868,10.9080362 C26.6965147,10.6350452 26.724094,10.2665074 26.4483011,10.007166 C26.1856411,9.78740829 25.8179173,9.80105784 25.5815233,10.0481147 C25.1350015,10.4835352 24.5440166,10.6759939 23.8348349,10.6759939 C22.6515519,10.6759939 22.0356144,10.0194506 21.9305504,8.50571575 L25.8967152,8.50571575 C26.6439827,8.50571575 26.9854406,8.12352841 26.9998869,7.39873742" id="Fill-7" fill="#231916"></path>
                    <g id="Group-11" transform="translate(29.000000, 0.000000)">
                        <mask id="mask-4" fill="white">
                            <use xlink:href="#path-3"></use>
                        </mask>
                        <g id="Clip-10"></g>
                        <path d="M3.38,10.5874889 C3.125,10.5874889 3.005,10.6756 2.795,10.6756 C2.465,10.6756 2.3,10.3997111 2.3,9.8956 L2.3,1.08304444 C2.3,0.4186 1.895,0.0574888889 1.19,0.0574888889 C0.5,0.0574888889 0.11,0.4186 0.11,1.08304444 L0.11,9.87971111 C0.11,11.5408222 0.71,12.2630444 2.21,12.2630444 C3.065,12.2630444 3.995,12.0463778 3.995,11.3530444 C3.995,10.9630444 3.77,10.5874889 3.38,10.5874889" id="Fill-9" fill="#231916" mask="url(#mask-4)"></path>
                    </g>
                    <g id="Group-14" transform="translate(34.000000, 0.000000)">
                        <mask id="mask-6" fill="white">
                            <use xlink:href="#path-5"></use>
                        </mask>
                        <g id="Clip-13"></g>
                        <path d="M3.3464,10.5874889 C3.11973333,10.5874889 3.01306667,10.6756 2.8264,10.6756 C2.5344,10.6756 2.3864,10.3997111 2.3864,9.8956 L2.3864,1.08304444 C2.3864,0.4186 2.0264,0.0574888889 1.39973333,0.0574888889 C0.7864,0.0574888889 0.439733333,0.4186 0.439733333,1.08304444 L0.439733333,9.87971111 C0.439733333,11.5408222 0.9864,12.2630444 2.3064,12.2630444 C3.0664,12.2630444 3.89306667,12.0463778 3.89306667,11.3530444 C3.89306667,10.9630444 3.69306667,10.5874889 3.3464,10.5874889" id="Fill-12" fill="#231916" mask="url(#mask-6)"></path>
                    </g>
                    <path d="M40.0113636,0 C39.4431818,0 39,0.532374101 39,1.25179856 C39,1.94244604 39.4670455,2.47482014 40.0113636,2.47482014 C40.5795455,2.47482014 41,1.95683453 41,1.25179856 C41,0.517985612 40.5920455,0 40.0113636,0 M40.0113636,3.72661871 C39.4886364,3.72661871 39.1931818,4.08633094 39.1931818,4.74820144 L39.1931818,10.9640288 C39.1931818,11.6258993 39.4886364,12 40.0113636,12 C40.5568182,12 40.8522727,11.6258993 40.8522727,10.9640288 L40.8522727,4.74820144 C40.8522727,4.08633094 40.5568182,3.72661871 40.0113636,3.72661871" id="Fill-15" fill="#231916"></path>
                    <path d="M48.2115059,9.83473054 C47.8680203,10.3664671 47.3152848,10.7401198 46.6717428,10.7559281 C45.6583944,10.7559281 44.8819327,10.0071856 44.8819327,8.18347305 C44.8819327,6.34251497 45.5399511,5.43712575 46.5927806,5.43712575 C47.4337281,5.43712575 47.9614589,6.09820359 48.2115059,6.63137725 L48.2115059,9.83473054 Z M49.1314157,4 C48.5668359,4 48.2378267,4.35928144 48.2246663,4.96287425 C47.8298552,4.41676647 47.1191953,4 46.2756157,4 C44.4344802,4 43,5.37964072 43,8.2251497 C43,11.1568862 44.6187253,12.1628743 46.2900921,12.1628743 C46.9862756,12.1628743 47.6850912,11.8610778 48.1588644,11.359521 L48.1588644,12.1355689 C48.1588644,13.7451497 47.7245723,14.5786826 46.3808987,14.5786826 C45.6175973,14.5786826 45.0648618,14.2754491 44.6450461,13.9894611 C44.2897161,13.7293413 43.9067494,13.8026347 43.7106599,14.1892216 C43.4856176,14.5930539 43.6185373,14.9796407 44.0251927,15.2814371 C44.6305697,15.7700599 45.5517955,16 46.4085354,16 C48.749765,16 50,14.6922156 50,11.9904192 L50,5.00742515 C50,4.35928144 49.7367926,4 49.1314157,4 L49.1314157,4 Z" id="Fill-17" fill="#231916"></path>
                    <path d="M58.0729672,7.19535915 L54.9662664,7.19535915 C55.1366761,6.02149804 55.7134476,5.28442245 56.6821615,5.28442245 C57.6403886,5.28442245 58.2158492,6.00784849 58.2158492,7.04521413 C58.2158492,7.14076096 58.1778348,7.19535915 58.0729672,7.19535915 M59.9999082,7.39873742 C60.0117058,5.76079167 58.8856906,4 56.6821615,4 C54.4026033,4 53,5.5969971 53,8.19041119 C53,10.7701757 54.481254,12 56.7345952,12 C58.0454395,12 59.0561004,11.5359154 59.488679,10.9080362 C59.6839948,10.6350452 59.724631,10.2665074 59.4362452,10.007166 C59.1740764,9.78740829 58.8188376,9.80105784 58.571088,10.0481147 C58.125401,10.4835352 57.5486295,10.6759939 56.8407736,10.6759939 C55.6465945,10.6759939 55.0436062,10.0194506 54.926941,8.50571575 L58.8987991,8.50571575 C59.631561,8.50571575 59.9867998,8.12352841 59.9999082,7.39873742" id="Fill-19" fill="#231916"></path>
                    <path d="M66.2764787,4 C65.2310867,4 64.352132,4.45128205 63.8555708,5.35247863 L63.8555708,4.90119658 C63.8555708,4.31316239 63.5116919,4 62.9339752,4.01367521 C62.3301238,4.01367521 62,4.34188034 62,4.91623932 L62,11.0153846 C62,11.6444444 62.3562586,12 62.9889959,12 C63.650619,12 63.9944979,11.6444444 63.9944979,11.0153846 L63.9944979,6.91282051 C64.213205,6.05128205 64.8610729,5.35247863 65.7276479,5.35247863 C66.525447,5.35247863 67.0055021,5.96786325 67.0055021,7.03589744 L67.0055021,11.0153846 C67.0055021,11.6444444 67.3631362,12 68.0110041,12 C68.6437414,12 69,11.6444444 69,11.0153846 L69,6.88410256 C69,5.05299145 67.8459422,4 66.2764787,4" id="Fill-21" fill="#231916"></path>
                    <path d="M75.3484848,10.3776224 C75.0136364,10.3776224 74.7878788,10.5454545 74.4242424,10.5454545 C74.0590909,10.5454545 73.8636364,10.2937063 73.8636364,9.60839161 L73.8636364,5.56643357 L75.2560606,5.56643357 C75.6818182,5.56643357 75.9242424,5.31468531 75.9242424,4.86713287 C75.9242424,4.41958042 75.6818182,4.16783217 75.2560606,4.16783217 L73.8636364,4.16783217 L73.8636364,2.99300699 C73.8636364,2.36503497 73.4848485,2 72.7727273,2 C72.0590909,2 71.680303,2.36503497 71.680303,2.99300699 L71.680303,4.16783217 L70.6969697,4.16783217 C70.2575758,4.16783217 70,4.41958042 70,4.86713287 C70,5.31468531 70.2575758,5.56643357 70.6969697,5.56643357 L71.680303,5.56643357 L71.680303,9.65034965 C71.680303,11.2727273 72.4227273,12 74.030303,12 C74.8636364,12 76,11.8181818 76,11.1188811 C76,10.7972028 75.7424242,10.3776224 75.3484848,10.3776224" id="Fill-23" fill="#231916"></path>
                    <path d="M84.8615322,10.8719212 C84.5683406,10.5187192 84.1685339,10.4729064 83.795381,10.7980296 C83.3422668,11.1674877 82.7172356,11.4497537 81.8363282,11.4497537 C80.0518577,11.4497537 79.0243545,9.8226601 79.0243545,6.86699507 C79.0243545,4.02955665 80.1584728,2.53694581 81.862982,2.53694581 C82.6892492,2.53694581 83.3169457,2.86206897 83.7287466,3.18866995 C84.0752457,3.45320197 84.5563464,3.36600985 84.7815709,2.99655172 C84.9828069,2.64187192 84.9015129,2.22660099 84.5683406,1.93103448 C84.0752457,1.47438424 83.0903886,1 81.8363282,1 C78.8111243,1 77,3.32167488 77,6.85221675 C77,10.8142857 78.731163,13 81.7297131,13 C83.075729,13 84.1285533,12.6024631 84.6749557,12.055665 C85.0214549,11.7009852 85.1027489,11.1985222 84.8615322,10.8719212" id="Fill-25" fill="#1D191F"></path>
                    <path d="M92.061753,9.26495726 C91.6434263,10.0307692 90.8067729,10.6188034 89.9701195,10.6051282 C89.2589641,10.591453 88.9243028,10.2222222 88.9103586,9.56581197 C88.8964143,8.85470085 89.4820717,8.17094017 91.0996016,8.11623932 C91.4482072,8.1025641 91.8247012,8.12991453 92.061753,8.15726496 L92.061753,9.26495726 Z M93.3306773,4.87521368 C92.7589641,4.3008547 91.8944223,4 90.6812749,4 C89.1195219,4 88.0039841,4.6974359 87.501992,5.32649573 C87.2231076,5.6957265 87.2649402,6.09230769 87.5717131,6.33846154 C87.8784861,6.5982906 88.3247012,6.54358974 88.6314741,6.24273504 C89.1613546,5.70940171 89.8446215,5.2991453 90.6533865,5.31282051 C91.5737052,5.32649573 92.061753,5.84615385 92.061753,6.78974359 L92.061753,6.94017094 C91.8525896,6.90051282 91.4760956,6.87179487 91.0856574,6.88547009 C88.6049801,6.91282051 87,7.99316239 87,9.7025641 C87,11.1111111 87.9482072,12 89.4960159,12 C90.6673307,12 91.6434263,11.5487179 92.187251,10.6611966 L92.187251,11.0564103 C92.187251,11.6581197 92.4940239,12 93.1075697,12 C93.7211155,12 94,11.6581197 94,11.0564103 L94,6.84444444 C94,5.98290598 93.7768924,5.32649573 93.3306773,4.87521368 L93.3306773,4.87521368 Z" id="Fill-27" fill="#231916"></path>
                    <path d="M99.9749566,4.01367521 C99.0396727,4.02735043 98.2144222,4.64273504 97.8568136,5.9008547 L97.8568136,4.87521368 C97.8568136,4.3008547 97.5129592,4 96.9490381,4 C96.3713627,4 96,4.31452991 96,4.87521368 L96,11.0153846 C96,11.6444444 96.3713627,12 96.9903006,12 C97.650501,12 98.0081095,11.6444444 98.0081095,11.0153846 L98.0081095,7.69094017 C98.2268009,6.61059829 99.0121643,5.79145299 99.9749566,5.66837607 C100.633782,5.6 101.061536,5.40854701 100.992766,4.73846154 C100.951503,4.20512821 100.566386,4 99.9749566,4.01367521" id="Fill-29" fill="#231916"></path>
                    <path d="M105.966301,4.01367521 C105.032005,4.02735043 104.210208,4.64273504 103.853502,5.9008547 L103.853502,4.87521368 C103.853502,4.3008547 103.510515,4 102.961735,4 C102.371798,4 102,4.31452991 102,4.87521368 L102,11.0153846 C102,11.6444444 102.371798,12 103.002894,12 C103.660057,12 104.003044,11.6444444 104.003044,11.0153846 L104.003044,7.69094017 C104.222555,6.61059829 105.005938,5.79145299 105.966301,5.66837607 C106.623464,5.6 107.05014,5.40854701 106.995262,4.73846154 C106.954104,4.20512821 106.556239,4 105.966301,4.01367521" id="Fill-31" fill="#231916"></path>
                    <g id="Group-35" transform="translate(108.000000, 3.000000)">
                        <mask id="mask-8" fill="white">
                            <use xlink:href="#path-7"></use>
                        </mask>
                        <g id="Clip-34"></g>
                        <path d="M7.05346667,1.01096667 C6.4668,0.808744444 6.09346667,1.02541111 5.9068,1.64652222 C5.41346667,3.42318889 4.76013333,5.71985556 4.3468,6.93318889 L4.29346667,6.93318889 C3.85346667,5.77763333 2.92013333,3.40874444 2.24013333,1.61763333 C2.01346667,1.0413 1.6268,0.765411111 1.04013333,1.0413 C0.480133333,1.28541111 0.3588,1.73318889 0.5868,2.32541111 C1.3588,4.24652222 2.48013333,6.87685556 3.37346667,8.94096667 C3.16013333,9.60541111 2.84013333,10.3420778 2.6668,10.6598556 C2.40013333,11.1365222 2.13346667,11.2809667 1.77346667,11.2809667 C1.5468,11.2809667 1.32013333,11.2231889 1.0668,11.2231889 C0.7068,11.2231889 0.4668,11.5409667 0.4668,12.0031889 C0.4668,12.6546333 1.16013333,12.8843 1.92013333,12.8843 C2.77346667,12.8698556 3.44013333,12.4943 3.85346667,11.7431889 C4.2268,11.1076333 4.69213333,9.95207778 5.05346667,8.99874444 C5.81346667,7.04874444 6.85346667,4.20318889 7.53346667,2.25318889 C7.73346667,1.7043 7.5868,1.1843 7.05346667,1.01096667" id="Fill-33" fill="#231916" mask="url(#mask-8)"></path>
                    </g>
                </g>
            </g>
        </g>
    </g>
</svg>